<?xml version="1.0" encoding="UTF-8"?>
<svg width="60px" height="53px" viewBox="0 0 60 53" version="1.1" xmlns="http://www.w3.org/2000/svg" xmlns:xlink="http://www.w3.org/1999/xlink">
    <!-- Generator: Sketch 52.2 (67145) - http://www.bohemiancoding.com/sketch -->
    <title>Fill 149</title>
    <desc>Created with Sketch.</desc>
    <g id="Desktop" stroke="none" stroke-width="1" fill="none" fill-rule="evenodd">
        <g id="Add-Idea-Desktop" transform="translate(-287.000000, -496.000000)" fill="#FFFFFF">
            <g id="Add-idea" transform="translate(97.000000, 215.000000)">
                <g id="Image" transform="translate(77.000000, 150.000000)">
                    <path d="M143,172.642857 C136.788125,172.642857 131.75,167.55675 131.75,161.285714 C131.75,155.014679 136.788125,149.928571 143,149.928571 C149.211875,149.928571 154.25,155.014679 154.25,161.285714 C154.25,167.55675 149.211875,172.642857 143,172.642857 L143,172.642857 Z M143,146.142857 C134.71625,146.142857 128,152.923071 128,161.285714 C128,169.648357 134.71625,176.428571 143,176.428571 C151.28375,176.428571 158,169.648357 158,161.285714 C158,152.923071 151.28375,146.142857 143,146.142857 L143,146.142857 Z M169.25,176.428571 C169.25,178.518286 167.57,180.214286 165.5,180.214286 L120.5,180.214286 C118.43,180.214286 116.75,178.518286 116.75,176.428571 L116.75,146.142857 C116.75,144.053143 118.43,142.357143 120.5,142.357143 L128,142.357143 L129.875,138.571429 C131.200625,136.370036 131.555,134.785714 133.625,134.785714 L152.375,134.785714 C154.445,134.785714 154.799375,136.370036 156.125,138.571429 L158,142.357143 L165.5,142.357143 C167.57,142.357143 169.25,144.053143 169.25,146.142857 L169.25,176.428571 L169.25,176.428571 Z M165.5,138.571429 L159.875,138.571429 L158,134.785714 C156.895625,132.584321 156.32,131 154.25,131 L131.75,131 C129.68,131 128.99375,132.805786 128,134.785714 L126.125,138.571429 L120.5,138.571429 C116.358125,138.571429 113,141.961536 113,146.142857 L113,176.428571 C113,180.609893 116.358125,184 120.5,184 L165.5,184 C169.641875,184 173,180.609893 173,176.428571 L173,146.142857 C173,141.961536 169.641875,138.571429 165.5,138.571429 L165.5,138.571429 Z" id="Fill-149"></path>
                </g>
            </g>
        </g>
    </g>
</svg>