<?xml version="1.0" encoding="UTF-8"?>
<svg width="33px" height="31px" viewBox="0 0 33 31" version="1.1" xmlns="http://www.w3.org/2000/svg" xmlns:xlink="http://www.w3.org/1999/xlink">
    <!-- Generator: Sketch 51 (57462) - http://www.bohemiancoding.com/sketch -->
    <title>Fill 72</title>
    <desc>Created with Sketch.</desc>
    <defs></defs>
    <g id="Web" stroke="none" stroke-width="1" fill="none" fill-rule="evenodd">
        <g id="Home-desktop-06/09" transform="translate(-965.000000, -77.000000)" fill="#7E7B7B">
            <g id="Home---Challenge-1-Copy" transform="translate(512.000000, 343.000000) rotate(-360.000000) translate(-512.000000, -343.000000) translate(25.000000, 76.000000)">
                <g id="Home---Challenge-1---Ideas" transform="translate(483.000000, -0.000000)">
                    <g id="Home---Challenge-1---Idea-1" transform="translate(0.400000, 0.000000)">
                        <g id="Home---Challenge-1---Idea-1---Reaction" transform="translate(457.000000, 1.000000)">
                            <path d="M28,13.682 L16,28 L4,13.623 C2.565,11.629 2,10.282 2,8.438 C2,4.999 4.455,1.904 8,1.875 C10.916,1.851 14.222,4.829 16,7.074 C17.731,4.908 21.084,1.875 24,1.875 C27.451,1.875 30,4.999 30,8.438 C30,10.282 29.553,11.729 28,13.682 L28,13.682 Z M24,-1.13686838e-13 C20.667,-1.13686838e-13 18.145,1.956 16,4 C13.957,1.831 11.333,-1.13686838e-13 8,-1.13686838e-13 C3.306,-1.13686838e-13 0,4.036 0,8.438 C0,10.799 0.967,12.499 2.026,14.097 L14.459,29.003 C15.854,30.48 16.118,30.48 17.513,29.003 L29.974,14.097 C31.22,12.499 32,10.799 32,8.438 C32,4.036 28.694,-1.13686838e-13 24,-1.13686838e-13 L24,-1.13686838e-13 Z" id="Fill-72"></path>
                        </g>
                    </g>
                </g>
            </g>
        </g>
    </g>
</svg>